{"title":"Everest.2015.HD-TS.XVID.AC3.HQ.Hive-CM8","uid":12465351,"size":1646503936,"categoryP":"video","categoryS":"movies","magnet":"?xt=urn:btih:3dc542882fa25042377c477acbdf8028d21bbc59&amp;dn=Everest.2015.HD-TS.XVID.AC3.HQ.Hive-CM8&amp;tr=udp%3A%2F%2Ftracker.openbittorrent.com%3A80&amp;tr=udp%3A%2F%2Fopen.demonii.com%3A1337&amp;tr=udp%3A%2F%2Ftracker.coppersurfer.tk%3A6969&amp;tr=udp%3A%2F%2Fexodus.desync.com%3A6969","seeders":18,"leechers":18,"uploader":"makintos13","files":2,"time":1442846014,"description":"SCREENS:\n &lt;a href=&quot;\nhttp://imgmak.com/ol&quot; rel=&quot;nofollow&quot; target=&quot;_NEW&quot;&gt;\nhttp://imgmak.com/ol&lt;/a&gt;\n &lt;a href=&quot;\nhttp://imgmak.com/oV&quot; rel=&quot;nofollow&quot; target=&quot;_NEW&quot;&gt;\nhttp://imgmak.com/oV&lt;/a&gt;\n &lt;a href=&quot;\nhttp://imgmak.com/oe&quot; rel=&quot;nofollow&quot; target=&quot;_NEW&quot;&gt;\nhttp://imgmak.com/oe&lt;/a&gt;\n &lt;a href=&quot;\nhttp://imgmak.com/og&quot; rel=&quot;nofollow&quot; target=&quot;_NEW&quot;&gt;\nhttp://imgmak.com/og&lt;/a&gt;\n &lt;a href=&quot;\nhttp://imgmak.com/oo&quot; rel=&quot;nofollow&quot; target=&quot;_NEW&quot;&gt;\nhttp://imgmak.com/oo&lt;/a&gt;\n &lt;a href=&quot;\nhttp://imgmak.com/oN&quot; rel=&quot;nofollow&quot; target=&quot;_NEW&quot;&gt;\nhttp://imgmak.com/oN&lt;/a&gt;\n\n:::::::::::::::::::::::::::;\n\nGeneral\nComplete name : Everest.2015.HD-TS.XVID.AC3.HQ.Hive-CM8.avi\nFormat : AVI\nFormat/Info : Audio Video Interleave\nFile size : 1.51 GiB\nDuration : 1h 49mn\nOverall bit rate : 1 980 Kbps\nWriting application : Nandub v1.0rc2\nWriting library : Nandub build 1853/release\n\nVideo\nID : 0\nFormat : MPEG-4 Visual\nFormat profile : Advanced Simple@L5\nFormat settings, BVOP : 2\nFormat settings, QPel : Yes\nFormat settings, GMC : No warppoints\nFormat settings, Matrix : Default (H.263)\nMuxing mode : Packed bitstream\nCodec ID : XVID\nCodec ID/Hint : XviD\nDuration : 1h 49mn\nBit rate : 1 712 Kbps\nWidth : 720 pixels\nHeight : 340 pixels\nDisplay aspect ratio : 2.118\nFrame rate : 29.970 fps\nColor space : YUV\nChroma subsampling : 4:2:0\nBit depth : 8 bits\nScan type : Progressive\nCompression mode : Lossy\nBits/(Pixel*Frame) : 0.233\nStream size : 1.31 GiB (86%)\nWriting library : XviD 1.2.1 (UTC 2008-12-04)\n\nAudio\nID : 1\nFormat : AC-3\nFormat/Info : Audio Coding 3\nMode extension : CM (complete main)\nFormat settings, Endianness : Big\nCodec ID : 2000\nDuration : 1h 49mn\nBit rate mode : Constant\nBit rate : 256 Kbps\nChannel(s) : 2 channels\nChannel positions : Front: L R\nSampling rate : 48.0 KHz\nBit depth : 16 bits\nCompression mode : Lossy\nStream size : 200 MiB (13%)\nAlignment : Split accross interleaves\nInterleave, duration : 33 ms (1.00 video frame)\nInterleave, preload duration : 500 ms\n\n\nGreetz\n\nSugarB,iNCOMiNG,Izzy,MenaceIISociety,jiinx,SiMPLE,CherryBomb\nranbailey,ViSiON,YanKeeS,COPYxRIGHT,THC,VAiN,ACAB,DRs\nLKRG,Kingstoner,ACAB,SiMPLE,TiTAN\nUnevano,BigVik,Rapeseed,SAFC,goldadvance,KaN1vE,Pinnz,Wayne,HiGH\nSeeN,jtr,Limey,ICONiK,TED,smittyman,rkofan,mrtoke09 (ya whinging old man here ya go lol )\nMr Hive\n\n\nLOOKING FOR ANYTHING YOU WANT TO LOOK AND SOUND BETTER\n\nCOME FIND US WE DONT BITE\n&lt;a class=&quot;__cf_email__&quot; href=&quot;/cdn-cgi/l/email-protection&quot; data-cfemail=&quot;e0a3add8a0889593888d81898cce8d85&quot;&gt;[email&amp;#160;protected]&lt;/a&gt;&lt;script data-cfhash='f9e31' type=&quot;text/javascript&quot;&gt;\n/* &lt;![CDATA[ */!function(){try{var t=&quot;currentScript&quot;in document?document.currentScript:function(){for(var t=document.getElementsByTagName(&quot;script&quot;),e=t.length;e--;)if(t[e].getAttribute(&quot;data-cfhash&quot;))return t[e]}();if(t&amp;&amp;t.previousSibling){var e,r,n,i,c=t.previousSibling,a=c.getAttribute(&quot;data-cfemail&quot;);if(a){for(e=&quot;&quot;,r=parseInt(a.substr(0,2),16),n=2;a.length-n;n+=2)i=parseInt(a.substr(n,2),16)^r,e+=String.fromCharCode(i);e=document.createTextNode(e),c.parentNode.replaceChild(e,c)}t.parentNode.removeChild(t);}}catch(u){}}()/* ]]&gt; */&lt;/script&gt;","torrent":{"xt":"urn:btih:3dc542882fa25042377c477acbdf8028d21bbc59","amp;dn":"Everest.2015.HD-TS.XVID.AC3.HQ.Hive-CM8","amp;tr":["udp%3A%2F%2Ftracker.openbittorrent.com%3A80","udp%3A%2F%2Fopen.demonii.com%3A1337","udp%3A%2F%2Ftracker.coppersurfer.tk%3A6969","udp%3A%2F%2Fexodus.desync.com%3A6969"],"infoHash":"3dc542882fa25042377c477acbdf8028d21bbc59","infoHashBuffer":{"type":"Buffer","data":[61,197,66,136,47,162,80,66,55,124,71,122,203,223,128,40,210,27,188,89]},"announce":[],"urlList":[]}}